# xmcd
#
# Track frame offsets: 
#        150
#        18357
#        29745
#        41165
#        53975
#        73102
#        90425
#        104355
#        120835
#        132715
#
# Disc length: 1903 seconds
#
# Revision: 2
# Processed by: cddbd v1.5PL3 Copyright (c) Steve Scherf et al.
# Submitted via: ExactAudioCopy v0.90b4
#
DISCID=8a076d0a
DTITLE=Chris LeDoux - Paint Me Back Home In Wyoming
DYEAR=1900
DGENRE=Country
TTITLE0=Paint Me Back Home In Wyoming
TTITLE1=Ain't Had Time To Go Home
TTITLE2=Cowcamp Blues
TTITLE3=Lean, Mean And Hungry
TTITLE4=Six Bucks A Day
TTITLE5=Night Rider's Lament
TTITLE6=Getting By A Quarter At A Time
TTITLE7=Hippies In Calgary
TTITLE8=Pilgrim's Progress
TTITLE9=Coming Home Mom Waltz
EXTD=
EXTT0=
EXTT1=
EXTT2=
EXTT3=
EXTT4=
EXTT5=
EXTT6=
EXTT7=
EXTT8=
EXTT9=
PLAYORDER=
